name rise30.3154peak39.0474fall46.5389.mot
datacolumns 19
datarows 23
range 2.55332500000000 2.58999100000000
endheader
time	ground_force1_vx	ground_force1_vy	ground_force1_vz	ground_force1_px	ground_force1_py	ground_force1_pz	ground_force2_vx	ground_force2_vy	ground_force2_vz	ground_force2_px	ground_force2_py	ground_force2_pz	ground_torque1_x	ground_torque1_y	ground_torque1_z	ground_torque2_x	ground_torque2_y	ground_torque2_z	
2.55332500000000	-7.20617600000000	41.84927900000000	-10.15908700000000	0.28885200000000	0.00000000000000	0.06849000000000	-36.77907200000000	775.43203100000005	-63.49690100000000	0.10343100000000	0.00000000000000	-0.12470900000000	0.00000000000000	-6.60965100000000	0.00000000000000	0.00000000000000	-18.75604700000000	0.00000000000000	
2.55499400000000	-7.85556700000000	49.46763800000000	-11.40033700000000	0.29518700000000	0.00000000000000	0.06985700000000	-37.21039100000000	772.58722499999999	-63.21503000000000	0.10271600000000	0.00000000000000	-0.12464800000000	0.00000000000000	-7.50515600000000	0.00000000000000	0.00000000000000	-18.71337900000000	0.00000000000000	
2.55666200000000	-8.35433000000000	57.28877700000000	-12.51929400000000	0.30078400000000	0.00000000000000	0.07106000000000	-37.67111500000000	769.65169700000001	-62.91182600000000	0.10199600000000	0.00000000000000	-0.12458400000000	0.00000000000000	-8.33429200000000	0.00000000000000	0.00000000000000	-18.67766300000000	0.00000000000000	
2.55833000000000	-8.68212200000000	65.21937000000000	-13.48885400000000	0.30578600000000	0.00000000000000	0.07213000000000	-38.16081100000000	766.62418100000002	-62.58692600000000	0.10127300000000	0.00000000000000	-0.12451700000000	0.00000000000000	-9.07747000000000	0.00000000000000	0.00000000000000	-18.64888400000000	0.00000000000000	
2.55999400000000	-8.82691300000000	73.18566500000000	-14.29114200000000	0.31030000000000	0.00000000000000	0.07309000000000	-38.67891600000000	763.50328800000000	-62.23998000000000	0.10054600000000	0.00000000000000	-0.12444600000000	0.00000000000000	-9.72112600000000	0.00000000000000	0.00000000000000	-18.62699400000000	0.00000000000000	
2.56166000000000	-8.78483700000000	81.13611700000000	-14.91760900000000	0.31441000000000	0.00000000000000	0.07395800000000	-39.22473600000000	760.28750500000001	-61.87065200000000	0.09981800000000	0.00000000000000	-0.12437100000000	0.00000000000000	-10.25791400000000	0.00000000000000	0.00000000000000	-18.61191300000000	0.00000000000000	
2.56332400000000	-8.55940300000000	89.04174200000000	-15.36835700000000	0.31818300000000	0.00000000000000	0.07474800000000	-39.79744700000000	756.97519499999999	-61.47862300000000	0.09909000000000	0.00000000000000	-0.12429200000000	0.00000000000000	-10.68635700000000	0.00000000000000	0.00000000000000	-18.60352300000000	0.00000000000000	
2.56499700000000	-8.16024700000000	96.89455599999999	-15.65087400000000	0.32167200000000	0.00000000000000	0.07547100000000	-40.39609800000000	753.56460600000003	-61.06359500000000	0.09836100000000	0.00000000000000	-0.12421000000000	0.00000000000000	-11.01009000000000	0.00000000000000	0.00000000000000	-18.60167700000000	0.00000000000000	
2.56666100000000	-7.60159000000000	104.70454700000001	-15.77837500000000	0.32491800000000	0.00000000000000	0.07613700000000	-41.01961000000000	750.05386999999996	-60.62529000000000	0.09763400000000	0.00000000000000	-0.12412400000000	0.00000000000000	-11.23679900000000	0.00000000000000	0.00000000000000	-18.60619000000000	0.00000000000000	
2.56832600000000	-6.90059700000000	112.49568900000000	-15.76797200000000	0.32795700000000	0.00000000000000	0.07675200000000	-41.66678100000000	746.44101400000000	-60.16345700000000	0.09691000000000	0.00000000000000	-0.12403400000000	0.00000000000000	-11.37702200000000	0.00000000000000	0.00000000000000	-18.61684500000000	0.00000000000000	
2.56999300000000	-6.07578300000000	120.30150800000000	-15.63883800000000	0.33081600000000	0.00000000000000	0.07732400000000	-42.33628700000000	742.72396000000003	-59.67787200000000	0.09618900000000	0.00000000000000	-0.12393900000000	0.00000000000000	-11.44292100000000	0.00000000000000	0.00000000000000	-18.63339400000000	0.00000000000000	
2.57166200000000	-5.14558400000000	128.16061800000000	-15.41052800000000	0.33351900000000	0.00000000000000	0.07785700000000	-43.02668500000000	738.90054099999998	-59.16833900000000	0.09547300000000	0.00000000000000	-0.12384000000000	0.00000000000000	-11.44713400000000	0.00000000000000	0.00000000000000	-18.65555300000000	0.00000000000000	
2.57332300000000	-4.12718300000000	136.11260999999999	-15.10155600000000	0.33608600000000	0.00000000000000	0.07835500000000	-43.73641800000000	734.96849999999995	-58.63469700000000	0.09476300000000	0.00000000000000	-0.12373700000000	0.00000000000000	-11.40178800000000	0.00000000000000	0.00000000000000	-18.68300800000000	0.00000000000000	
2.57499500000000	-3.03564200000000	144.19454200000001	-14.72829900000000	0.33853300000000	0.00000000000000	0.07882300000000	-44.46381900000000	730.92550500000004	-58.07681900000000	0.09406100000000	0.00000000000000	-0.12362900000000	0.00000000000000	-11.31771700000000	0.00000000000000	0.00000000000000	-18.71541400000000	0.00000000000000	
2.57665800000000	-1.88334500000000	152.43820400000001	-14.30425700000000	0.34087200000000	0.00000000000000	0.07926300000000	-45.20711400000000	726.76915799999995	-57.49461600000000	0.09336800000000	0.00000000000000	-0.12351700000000	0.00000000000000	-11.20391800000000	0.00000000000000	0.00000000000000	-18.75239500000000	0.00000000000000	
2.57833000000000	-0.67974800000000	160.86821900000001	-13.83966000000000	0.34311600000000	0.00000000000000	0.07967900000000	-45.96442900000000	722.49700399999995	-56.88804200000000	0.09268600000000	0.00000000000000	-0.12339900000000	0.00000000000000	-11.06724200000000	0.00000000000000	0.00000000000000	-18.79354500000000	0.00000000000000	
2.57999500000000	0.56860100000000	169.50099299999999	-13.34139300000000	0.34527500000000	0.00000000000000	0.08007200000000	-46.73379400000000	718.10654499999998	-56.25709100000000	0.09201500000000	0.00000000000000	-0.12327700000000	0.00000000000000	-10.91230000000000	0.00000000000000	0.00000000000000	-18.83843100000000	0.00000000000000	
2.58166100000000	1.85782600000000	178.34441699999999	-12.81318500000000	0.34735500000000	0.00000000000000	0.08044500000000	-47.51314700000000	713.59525299999996	-55.60180600000000	0.09135700000000	0.00000000000000	-0.12315000000000	0.00000000000000	-10.74155500000000	0.00000000000000	0.00000000000000	-18.88659200000000	0.00000000000000	
2.58332600000000	3.18632600000000	187.39822300000000	-12.25600400000000	0.34936500000000	0.00000000000000	0.08079800000000	-48.30034500000000	708.96058300000004	-54.92227400000000	0.09071300000000	0.00000000000000	-0.12301800000000	0.00000000000000	-10.55556400000000	0.00000000000000	0.00000000000000	-18.93754000000000	0.00000000000000	
2.58499100000000	4.55427700000000	196.65484000000001	-11.66858600000000	0.35131000000000	0.00000000000000	0.08113500000000	-49.09316600000000	704.19998799999996	-54.21863600000000	0.09008500000000	0.00000000000000	-0.12288100000000	0.00000000000000	-10.35331300000000	0.00000000000000	0.00000000000000	-18.99076500000000	0.00000000000000	
2.58666300000000	5.96307900000000	206.10059200000001	-11.04803200000000	0.35319400000000	0.00000000000000	0.08145600000000	-49.88931600000000	699.31093399999997	-53.49108300000000	0.08947500000000	0.00000000000000	-0.12273800000000	0.00000000000000	-10.13261600000000	0.00000000000000	0.00000000000000	-19.04573100000000	0.00000000000000	
2.58833100000000	7.41482200000000	215.71709500000000	-10.39043000000000	0.35502200000000	0.00000000000000	0.08176200000000	-50.68643900000000	694.29092100000003	-52.73986000000000	0.08888300000000	0.00000000000000	-0.12259000000000	0.00000000000000	-9.89053000000000	0.00000000000000	0.00000000000000	-19.10188300000000	0.00000000000000	
2.58999100000000	8.91178500000000	225.48270600000001	-9.69143100000000	0.35679700000000	0.00000000000000	0.08205400000000	-51.48212200000000	689.13749499999994	-51.96526900000000	0.08831000000000	0.00000000000000	-0.12243700000000	0.00000000000000	-9.62375200000000	0.00000000000000	0.00000000000000	-19.15864400000000	0.00000000000000	
